# xmcd
#
# Track frame offsets:
#	150
#	4112
#	19017
#	39834
#	62920
#	81168
#	82595
#	93568
#	110979
#	126577
#	131277
#	145493
#	168462
#	170045
#	189569
#	208235
#	217962
#	236641
#
# Disc length: 3401 seconds
#
# Revision: 1
# Processed by: cddbd v1.5.2PL0 Copyright (c) Steve Scherf et al.
# Submitted via: audiograbber 1.83.01
#
DISCID=000d4712
DTITLE=Everlast - Whitey Ford sings the Blues
DYEAR=1992
DGENRE=Blues
TTITLE0=The white boy is back
TTITLE1=Money (dollar bill) feat. Sadat x
TTITLE2=Ends
TTITLE3=What it's like
TTITLE4=Get down
TTITLE5=sen dog
TTITLE6=Tired
TTITLE7=Hot to death
TTITLE8=Pain killers
TTITLE9=Prince Paul
TTITLE10=Praise the lord
TTITLE11=Today (watch me shine) feat. Bronx Style Bob
TTITLE12=Guru
TTITLE13=Death comes callin'
TTITLE14=Funky beat feat. Casual and Sadat x
TTITLE15=The letter
TTITLE16=7 Years
TTITLE17=Next man (CJ bonuns cut)
EXTD=
EXTT0=
EXTT1=
EXTT2=
EXTT3=
EXTT4=
EXTT5=
EXTT6=
EXTT7=
EXTT8=
EXTT9=
EXTT10=
EXTT11=
EXTT12=
EXTT13=
EXTT14=
EXTT15=
EXTT16=
EXTT17=
PLAYORDER=
